<svg xmlns="http://www.w3.org/2000/svg" viewBox="0 0 529.41 496.73"><defs><style>.cls-1{fill:#ed6c23;}</style></defs><g id="Camada_2" data-name="Camada 2"><g id="Camada_1-2" data-name="Camada 1"><path class="cls-1" d="M168.19,496.73C123.74,495.46,81.06,480,46,446.12,21,422,7,392.17,1.9,358.08c-7.65-51.47,8.39-96.52,38.15-137.67a278.67,278.67,0,0,1,46.09-49.72c21-17.72,32.15-41,39.8-66.67,5.21-17.49,10.13-35.17,16.92-52.07,12.58-31.31,37.82-46.46,70.23-51,21.1-2.93,41.12.35,57.94,14.06,9.23,7.52,17.19,16.67,25.28,25.48C308,53.22,319.92,65.34,336,72.58c13.83,6.23,28.4,8,43.28,8.16,31.39.28,61.37,6.51,87.91,23.76,44.38,28.85,66.1,70.21,61.64,123.14-4.39,52.23-33,89.46-78.7,113.12a448.7,448.7,0,0,1-64.38,26.71c-33,11-58.91,30.61-79.61,58.16-11.91,15.85-24.73,31-41.2,42.54C237,487.78,205.82,496.39,168.19,496.73Z"/></g></g></svg>